<svg width="16" height="20" viewBox="0 0 16 20" fill="none" xmlns="http://www.w3.org/2000/svg">
<path d="M13.733 0.0398121C13.2173 0.133562 12.2486 0.555437 11.479 1.02028L11.0767 1.26247L10.7994 1.19606C10.2017 1.06325 9.71342 1.01637 8.66655 0.992937C7.27592 0.961687 6.27202 1.05934 5.52202 1.29372L5.28764 1.36403L4.93608 1.13356C3.93998 0.481218 2.84623 0.0476246 2.18608 0.0437183H1.98295L1.90483 0.231218C1.58451 0.977312 1.49858 2.10231 1.7017 2.98903L1.77983 3.33278L1.46342 3.75075C1.10014 4.23122 0.803265 4.81325 0.686077 5.26638C0.428265 6.30153 0.518109 7.80153 0.897015 8.81325C1.18998 9.58669 1.58452 10.2 2.17045 10.7898C3.17827 11.8015 4.3228 12.325 6.12748 12.6023L6.27592 12.6258L6.02592 12.8758C5.74858 13.157 5.54545 13.4968 5.4517 13.8523C5.39311 14.0711 5.37748 14.0906 5.2017 14.1765C4.67436 14.4304 3.64702 14.4461 3.11967 14.2039C2.86186 14.0867 2.63139 13.8718 2.25639 13.407C1.43217 12.3718 1.12748 12.1492 0.533734 12.1492C0.209515 12.1492 0.0688898 12.1804 0.0220148 12.2703C-0.0404852 12.3875 0.010296 12.45 0.436077 12.7781C0.658734 12.95 0.928265 13.2039 1.03373 13.3367C1.1392 13.4695 1.36967 13.8679 1.54545 14.2195C1.83451 14.7976 1.89311 14.8875 2.16655 15.1609C2.49077 15.4929 2.83842 15.6883 3.30327 15.8133C3.58061 15.8875 4.54155 15.9109 5.03373 15.8523L5.29545 15.8211V17.0164C5.29545 18.1258 5.29155 18.2195 5.22123 18.3562C5.11186 18.5593 5.00639 18.6726 4.68217 18.9265C4.34623 19.1883 4.28373 19.282 4.37358 19.3758C4.48295 19.4812 5.20952 19.4617 5.50248 19.3445C5.81889 19.2195 6.18608 18.9617 6.3267 18.7625L6.4478 18.5906L6.47905 16.8679C6.49467 15.9187 6.52592 15.0515 6.54936 14.9383C6.58842 14.7429 6.79155 14.3797 6.86186 14.3797C6.90873 14.3797 6.90483 17.7351 6.85795 18.4187C6.81108 19.0437 6.73295 19.2703 6.46733 19.5593C6.28373 19.7586 6.27202 19.8601 6.41264 19.9539C6.50248 20.0125 6.54155 20.0125 6.75248 19.9695C7.08452 19.8992 7.3228 19.7703 7.61577 19.4929C8.15092 18.9929 8.1978 18.7234 8.2017 16.1179C8.20561 14.9422 8.22123 14.2703 8.24467 14.2547C8.26811 14.239 8.34233 14.2234 8.41264 14.2234H8.54155L8.53764 16.2625C8.53373 18.5593 8.54936 18.7586 8.78764 19.157C8.90873 19.364 9.08061 19.5281 9.36577 19.7078C9.83842 20.0047 10.19 20.075 10.2798 19.8914C10.3462 19.7625 10.2994 19.6531 10.0494 19.364C9.5767 18.8211 9.59233 18.907 9.59233 16.4422C9.59233 14.2703 9.58842 14.3054 9.78373 14.5125C10.0181 14.7586 10.108 15.3054 10.2173 17.0945C10.2994 18.4187 10.2994 18.4226 10.4165 18.6687C10.6001 19.0515 10.94 19.2937 11.4478 19.4031C11.9087 19.5047 12.4439 19.4422 12.4439 19.2859C12.4439 19.2547 12.272 19.0906 12.065 18.9226C11.772 18.6883 11.6587 18.5672 11.5728 18.4031L11.4595 18.1883L11.479 16.8797C11.5025 15.4539 11.4673 14.532 11.3697 14.0476C11.2603 13.5008 11.0025 13.0554 10.6509 12.7937C10.5415 12.7117 10.4634 12.6336 10.4712 12.6218C10.479 12.6062 10.5962 12.5828 10.7251 12.5711C10.854 12.5554 11.1431 12.5086 11.3619 12.4656C13.7955 11.9734 15.3306 10.6804 15.7837 8.73122C15.983 7.87966 16.0298 6.48122 15.8892 5.70778C15.8033 5.24294 15.6939 4.88356 15.5103 4.47731C15.3736 4.16872 15.2251 3.93434 14.8697 3.4695L14.5806 3.08278L14.6353 2.64919C14.7056 2.06716 14.6978 1.19606 14.6197 0.840593C14.5572 0.567156 14.4283 0.192156 14.3619 0.0866871C14.3189 0.0202808 13.983 -0.00315666 13.733 0.0398121Z" fill="#22272E"/>
</svg>
